<?xml version="1.0" standalone="no"?>
<!DOCTYPE svg PUBLIC "-//W3C//DTD SVG 20010904//EN"
 "http://www.w3.org/TR/2001/REC-SVG-20010904/DTD/svg10.dtd">
<svg version="1.0" xmlns="http://www.w3.org/2000/svg"
 width="180.000000pt" height="161.000000pt" viewBox="0 0 180.000000 161.000000"
 preserveAspectRatio="xMidYMid meet">

<g transform="translate(0.000000,161.000000) scale(0.100000,-0.100000)"
fill="#000000" stroke="none">
<path d="M740 1496 c-159 -37 -251 -87 -361 -196 -73 -72 -94 -99 -132 -180
-57 -117 -77 -199 -77 -315 0 -250 116 -463 326 -598 353 -227 834 -96 1019
278 112 226 97 499 -38 703 -91 136 -226 238 -385 289 -93 30 -265 40 -352 19z
m242 -140 c398 -77 592 -519 376 -854 -103 -158 -257 -248 -448 -259 -171 -10
-307 42 -430 167 -94 94 -136 175 -158 306 -14 79 -14 103 -3 169 40 242 210
416 456 470 79 18 119 18 207 1z"/>
<path d="M810 1320 c-224 -30 -398 -195 -446 -420 -52 -249 101 -509 351 -595
67 -23 191 -30 268 -15 214 41 388 227 418 446 34 239 -117 481 -347 559 -39
13 -169 37 -184 33 -3 0 -30 -4 -60 -8z m195 -35 c156 -41 288 -160 349 -315
23 -59 32 -199 17 -272 -53 -252 -316 -431 -570 -388 -193 32 -357 180 -406
365 -59 227 50 466 259 569 39 19 89 39 111 45 63 14 175 12 240 -4z"/>
<path d="M785 1276 c-157 -36 -273 -125 -341 -262 -159 -319 75 -694 433 -694
137 0 252 48 349 144 148 148 183 366 88 554 -36 73 -115 160 -180 198 -102
60 -242 84 -349 60z m89 -126 c-33 -4 -66 -10 -72 -14 -7 -4 -12 -5 -12 -1 0
12 47 24 95 23 l50 -1 -61 -7z m169 -28 c-2 -12 2 -22 7 -22 6 0 10 5 10 11 0
5 5 7 12 3 8 -5 5 -13 -10 -25 -22 -17 -31 -36 -12 -24 6 3 10 2 10 -3 0 -6
-7 -13 -16 -16 -8 -3 -12 -2 -9 3 3 5 -2 11 -11 13 -10 2 -18 15 -20 31 -2 24
5 32 29 28 15 -2 6 18 -10 23 -14 4 -13 4 2 3 14 -2 19 -9 18 -25z m-328 -14
c3 -30 -22 -55 -38 -39 -8 8 -7 11 7 11 13 0 16 5 11 20 -4 12 -2 20 5 20 6 0
8 6 4 13 -4 6 -3 9 1 4 5 -4 9 -17 10 -29z m193 25 c-10 -2 -28 -2 -40 0 -13
2 -5 4 17 4 22 1 32 -1 23 -4z m-138 -41 c24 -6 40 -23 40 -44 0 -15 -3 -17
-19 -8 -25 13 -31 13 -31 0 0 -5 5 -9 12 -7 6 1 14 -12 18 -30 5 -23 4 -30 -5
-26 -7 2 -10 13 -7 25 4 18 1 20 -26 16 -18 -2 -32 -1 -32 3 0 4 -3 16 -7 26
-6 16 -5 16 10 4 20 -16 36 -6 19 11 -7 7 -12 23 -12 38 1 21 2 23 13 10 7 -8
19 -16 27 -18z m245 -53 c12 -18 -3 -22 -20 -5 -14 14 -14 16 -1 16 8 0 18 -5
21 -11z m-30 -20 c11 -17 -1 -21 -15 -4 -8 9 -8 15 -2 15 6 0 14 -5 17 -11z
m54 -8 c-7 -10 -21 -24 -33 -31 -20 -12 -20 -12 -6 6 14 17 41 43 48 44 1 0
-3 -8 -9 -19z m111 -1 c0 -11 -5 -20 -11 -20 -6 0 -9 7 -5 15 3 8 1 15 -4 15
-5 0 -15 -7 -24 -15 -8 -8 -18 -15 -23 -15 -14 1 38 40 53 40 8 0 14 -9 14
-20z m-503 -17 c3 -10 13 -26 21 -36 12 -13 13 -20 4 -29 -18 -18 -14 -38 8
-38 11 0 20 -4 20 -10 0 -5 13 -10 29 -10 17 0 33 -5 36 -10 4 -6 12 -10 18
-9 27 3 47 -2 47 -11 0 -5 -7 -10 -15 -10 -12 0 -15 -19 -15 -110 0 -89 -3
-110 -14 -110 -23 0 -25 -11 -15 -65 7 -36 6 -51 -3 -57 -10 -6 -10 -8 1 -8 8
0 12 -2 9 -5 -3 -3 -16 -1 -29 4 -13 5 -17 10 -9 11 10 0 11 3 4 8 -7 4 -14
16 -17 27 -4 19 -5 19 -6 -2 -1 -16 -6 -20 -22 -16 -14 4 -17 8 -9 13 7 4 9
13 5 19 -5 9 -10 9 -20 1 -9 -8 -14 -5 -18 11 -4 16 -11 20 -24 15 -13 -5 -12
-1 7 19 17 18 21 28 13 36 -8 8 -13 5 -18 -10 -3 -12 -11 -21 -16 -21 -6 0 -8
9 -4 19 3 11 0 23 -6 27 -9 5 -8 10 4 19 8 6 17 27 20 46 4 32 4 31 5 -8 1
-24 6 -43 12 -43 5 0 9 -6 7 -12 -1 -8 6 -12 17 -10 11 2 26 -4 34 -15 12 -16
13 -15 7 12 -5 23 -4 26 4 15 10 -13 12 -13 21 0 5 8 14 16 20 16 5 1 15 2 20
3 6 0 10 32 10 71 l0 70 -52 1 c-29 1 -70 1 -90 0 -37 -2 -38 -1 -38 33 0 20
-3 36 -8 36 -4 0 -6 20 -4 45 3 27 -1 52 -8 60 -7 9 -10 18 -6 22 3 3 6 2 6
-4 0 -14 38 -24 46 -12 3 5 -2 9 -10 9 -9 0 -16 5 -16 10 0 17 30 11 37 -7z
m533 7 c0 -5 -2 -10 -4 -10 -3 0 -8 5 -11 10 -3 6 -1 10 4 10 6 0 11 -4 11
-10z m-316 -16 c4 -11 13 -14 28 -11 12 4 30 -1 44 -12 21 -17 21 -18 3 -29
-27 -17 -37 -15 -13 3 19 14 19 14 -3 15 -12 0 -23 -4 -25 -9 -1 -5 -19 -11
-38 -15 -25 -4 -29 -3 -15 3 19 9 19 9 -5 20 -22 10 -19 10 20 6 45 -4 45 -4
10 6 -42 13 -44 15 -35 28 9 16 22 13 29 -5z m111 -4 c3 -5 1 -10 -4 -10 -6 0
-11 5 -11 10 0 6 2 10 4 10 3 0 8 -4 11 -10z m105 -10 c0 -7 6 -7 18 -1 9 5
28 8 42 7 22 -1 25 -6 28 -43 2 -24 8 -43 14 -43 7 0 8 -26 3 -80 -6 -64 -4
-80 6 -81 8 0 4 -4 -8 -9 -26 -11 -31 -30 -7 -30 9 0 14 -5 12 -11 -2 -6 -8
-10 -13 -10 -6 0 -16 -11 -23 -25 -7 -13 -20 -24 -28 -24 -8 0 -12 -5 -9 -11
4 -6 13 -8 21 -5 8 3 14 1 14 -4 0 -5 -10 -9 -22 -8 -13 0 -36 -6 -52 -15 -16
-9 -33 -14 -38 -11 -4 3 -8 -2 -8 -10 0 -9 7 -16 15 -16 8 0 15 5 15 10 0 6 5
10 11 10 8 0 7 -5 -1 -15 -7 -9 -10 -18 -7 -22 10 -9 39 18 34 31 -3 7 4 12
14 12 16 0 15 -4 -9 -29 -19 -20 -33 -26 -49 -22 -13 3 -23 1 -23 -5 0 -5 -8
-10 -18 -10 -14 0 -17 8 -17 41 0 28 -6 44 -18 50 -14 9 -17 26 -17 114 0 73
-4 105 -12 109 -7 3 -3 3 10 0 12 -3 22 -1 22 5 0 6 -4 11 -10 11 -5 0 -10 7
-10 15 0 8 5 15 10 15 6 0 10 -4 10 -9 0 -10 32 -7 50 4 6 3 10 -1 10 -9 0 -9
-5 -16 -11 -16 -5 0 -8 -4 -5 -9 3 -5 -1 -11 -9 -15 -12 -4 -15 -28 -15 -120
0 -63 4 -117 9 -120 5 -4 11 0 13 6 3 7 13 13 24 14 24 1 74 23 54 23 -8 1 -1
11 17 24 32 22 33 24 33 100 0 44 4 77 10 77 11 0 13 37 3 95 -5 31 -8 35 -14
20 -4 -11 -8 -39 -8 -62 -1 -23 -5 -45 -11 -48 -5 -3 -10 3 -10 14 0 15 -6 21
-21 21 -17 0 -20 5 -17 25 3 14 -1 30 -8 36 -8 6 -14 16 -14 21 0 5 12 -3 27
-17 15 -14 32 -25 38 -24 5 0 4 3 -2 6 -7 2 -13 9 -13 15 0 6 -11 19 -25 30
-26 20 -33 38 -15 38 6 0 10 -5 10 -10z m-355 -38 c-6 -7 -35 18 -35 31 0 5 9
2 20 -8 11 -10 18 -20 15 -23z m462 -14 c-3 -8 -6 -5 -6 6 -1 11 2 17 5 13 3
-3 4 -12 1 -19z m-147 2 c8 -5 12 -10 10 -12 -3 -2 -15 -12 -28 -23 -20 -16
-22 -16 -16 -2 3 9 11 17 16 17 6 0 5 6 -2 15 -14 17 -3 20 20 5z m-315 -10
c17 -7 15 -9 -12 -9 -18 -1 -33 4 -33 9 0 12 17 12 45 0z m172 4 c-3 -3 -12
-4 -19 -1 -8 3 -5 6 6 6 11 1 17 -2 13 -5z m-300 -96 c-3 -7 -5 -2 -5 12 0 14
2 19 5 13 2 -7 2 -19 0 -25z m-17 6 c0 -8 -4 -12 -10 -9 -5 3 -10 10 -10 16 0
5 5 9 10 9 6 0 10 -7 10 -16z m248 -165 c-3 -88 -10 -165 -15 -170 -10 -10 -7
288 2 319 13 40 17 -7 13 -149z m307 42 c3 -5 1 -12 -5 -16 -5 -3 -10 1 -10 9
0 18 6 21 15 7z m-548 -43 c-3 -8 -6 -5 -6 6 -1 11 2 17 5 13 3 -3 4 -12 1
-19z m420 -184 c-3 -3 -12 -4 -19 -1 -8 3 -5 6 6 6 11 1 17 -2 13 -5z"/>
<path d="M640 950 c0 -5 5 -10 10 -10 6 0 10 5 10 10 0 6 -4 10 -10 10 -5 0
-10 -4 -10 -10z"/>
<path d="M626 899 c-3 -17 -6 -44 -6 -60 0 -24 4 -28 28 -26 25 2 52 18 52 31
0 3 -14 6 -31 6 -29 0 -30 2 -28 34 4 45 -7 56 -15 15z"/>
<path d="M660 580 c0 -9 39 -25 45 -18 2 2 -7 8 -21 15 -13 6 -24 7 -24 3z"/>
<path d="M1100 960 c-13 -9 -13 -11 0 -19 17 -12 30 -5 30 15 0 16 -9 18 -30
4z"/>
</g>
</svg>
