<?xml version="1.0" standalone="no"?>
<!DOCTYPE svg PUBLIC "-//W3C//DTD SVG 20010904//EN"
 "http://www.w3.org/TR/2001/REC-SVG-20010904/DTD/svg10.dtd">
<svg version="1.0" xmlns="http://www.w3.org/2000/svg"
 width="500.000000pt" height="500.000000pt" viewBox="0 0 500.000000 500.000000"
 preserveAspectRatio="xMidYMid meet">

<g transform="translate(0.000000,500.000000) scale(0.100000,-0.100000)"
fill="#000000" stroke="none">
<path d="M2290 3475 c-123 -21 -294 -66 -312 -82 -9 -8 -21 -12 -26 -9 -14 8
-92 -26 -176 -76 -63 -38 -66 -42 -45 -50 22 -9 55 2 122 38 39 22 208 78 358
119 138 38 246 45 419 25 47 -5 159 -16 250 -24 156 -15 256 -30 412 -62 67
-14 105 -18 97 -10 -11 11 -524 118 -631 131 -145 18 -363 18 -468 0z"/>
<path d="M3710 3290 c0 -5 4 -10 9 -10 5 0 18 -3 28 -6 16 -5 16 -4 -1 10 -23
18 -36 20 -36 6z"/>
<path d="M3792 3260 c14 -4 73 -45 130 -90 80 -63 112 -96 142 -146 22 -35 41
-62 43 -60 2 2 -11 35 -30 72 -27 54 -49 80 -99 121 -77 61 -167 113 -194 112
-14 0 -12 -3 8 -9z"/>
<path d="M1805 3130 c-3 -5 -2 -10 4 -10 5 0 13 5 16 10 3 6 2 10 -4 10 -5 0
-13 -4 -16 -10z"/>
<path d="M3524 3025 c3 -19 -1 -33 -12 -41 -14 -10 -14 -14 0 -45 83 -179 153
-395 174 -534 4 -27 20 -78 35 -113 96 -213 90 -369 -21 -593 l-51 -102 20
-41 c10 -22 25 -66 32 -96 18 -81 22 -45 4 41 -22 109 -21 118 29 169 37 36
51 63 76 138 l31 94 -11 165 c-7 109 -15 174 -25 192 -23 41 -55 121 -55 139
0 8 -6 23 -14 31 -21 25 -96 271 -99 326 -2 43 1 50 18 53 15 1 25 -9 39 -39
10 -22 29 -44 42 -49 17 -7 28 -24 40 -65 8 -31 22 -59 30 -62 8 -3 25 -24 39
-47 13 -22 37 -49 54 -59 16 -9 57 -45 90 -80 69 -72 145 -117 164 -98 8 8 14
86 17 259 5 206 3 254 -9 287 -15 41 -58 115 -47 82 12 -39 28 -148 22 -162
-3 -8 -1 -63 4 -120 9 -85 8 -116 -4 -158 -30 -107 -30 -105 -11 -82 16 19 16
18 10 -20 -11 -59 -20 -63 -60 -25 -28 27 -34 40 -30 60 13 58 -168 328 -205
305 -10 -6 -158 137 -273 266 -46 51 -48 53 -43 24z"/>
<path d="M951 2910 c-28 -38 -61 -89 -71 -113 -51 -114 -98 -418 -81 -523 11
-75 39 -138 62 -142 10 -2 23 15 40 50 86 188 379 521 458 521 25 0 28 5 40
56 17 69 21 131 10 131 -5 0 -14 -20 -20 -45 -9 -37 -23 -56 -72 -98 -196
-168 -322 -308 -377 -417 l-23 -45 -15 65 c-13 60 -12 79 12 280 25 196 30
221 61 283 18 37 32 67 30 67 -1 0 -26 -31 -54 -70z"/>
<path d="M2960 2671 c0 -6 0 -14 0 -18 0 -4 26 -8 57 -9 46 -2 61 -6 75 -24
23 -28 23 -47 -2 -87 -29 -48 -106 -67 -149 -37 -19 14 -22 23 -19 64 3 42 1
46 -14 36 -47 -29 -58 -151 -20 -227 26 -54 27 -65 6 -77 -13 -7 -9 -15 26
-44 23 -20 36 -38 29 -40 -20 -7 0 -47 27 -54 13 -3 24 -12 24 -20 0 -11 17
-14 73 -13 89 2 138 11 119 23 -8 4 -38 5 -68 1 -29 -3 -63 -4 -74 0 -37 12
-21 25 30 25 55 0 107 18 129 43 15 19 2 24 -16 6 -7 -7 -18 -3 -36 15 -14 14
-35 26 -46 26 -67 0 -65 29 4 63 64 31 91 33 140 10 28 -13 34 -21 30 -37 -6
-19 -5 -19 14 2 41 47 50 164 19 227 -23 45 -82 107 -121 127 -49 25 -237 40
-237 19z m240 -207 c0 -14 -21 -19 -33 -7 -9 9 13 34 24 27 5 -3 9 -12 9 -20z"/>
<path d="M1364 2604 c-4 -22 -2 -40 5 -47 8 -8 11 1 11 36 0 56 -7 61 -16 11z"/>
<path d="M1721 2598 c-47 -13 -94 -51 -117 -93 -10 -19 -22 -35 -26 -35 -10 0
-28 -69 -28 -110 1 -21 16 -63 38 -105 42 -78 69 -93 64 -34 -3 36 -3 37 48
49 48 11 54 11 108 -16 106 -51 105 -48 18 -90 -43 -20 -89 -47 -103 -60 -22
-20 -55 -30 -85 -25 -18 3 -6 -10 23 -25 39 -20 123 -20 169 -1 54 23 120 75
120 94 0 9 10 27 22 40 l22 23 -43 -3 -42 -3 30 23 c16 13 44 49 61 81 29 54
30 60 19 105 -6 28 -18 51 -28 54 -9 4 -25 15 -36 27 l-20 20 -5 -35 c-8 -45
-15 -56 -52 -75 -33 -17 -72 -12 -100 13 -20 18 -24 73 -7 105 13 25 69 49 98
41 16 -4 20 -2 16 9 -3 7 -17 15 -31 16 -14 1 -34 6 -44 12 -22 12 -43 12 -89
-2z m14 -229 c0 -7 -8 -15 -17 -17 -18 -3 -25 18 -11 32 10 10 28 1 28 -15z"/>
<path d="M2824 2483 c-13 -22 -1 -75 23 -94 15 -13 16 -11 10 20 -4 18 -7 46
-7 62 0 33 -10 37 -26 12z"/>
<path d="M4634 2466 c-3 -8 0 -24 6 -36 6 -12 13 -63 16 -113 5 -90 10 -130
39 -272 31 -149 43 -240 34 -249 -5 -6 -2 -17 9 -29 9 -10 18 -35 19 -56 1
-20 9 -67 17 -106 9 -38 16 -81 16 -95 0 -14 7 -38 15 -54 26 -49 16 -54 -67
-41 -40 7 -80 15 -88 19 -8 3 -55 11 -105 16 -49 6 -110 13 -134 16 -31 5 -46
2 -52 -7 -13 -21 -10 -52 7 -74 16 -20 16 -19 9 4 -4 14 -3 26 4 30 16 11 171
-7 310 -34 168 -34 163 -34 155 18 -3 23 -14 85 -24 137 -54 271 -156 834
-162 890 -3 23 0 25 32 23 35 -1 35 -1 10 12 -33 18 -59 19 -66 1z"/>
<path d="M4748 2443 c7 -3 16 -2 19 1 4 3 -2 6 -13 5 -11 0 -14 -3 -6 -6z"/>
<path d="M3346 2363 c-11 -11 -6 -50 7 -62 18 -14 27 -4 27 30 0 25 -21 45
-34 32z"/>
<path d="M2807 2333 c-4 -3 -7 -26 -7 -50 0 -32 5 -45 17 -50 9 -4 19 -1 21 5
2 7 16 12 30 13 l27 1 -25 7 c-16 4 -29 18 -35 38 -12 37 -19 46 -28 36z"/>
<path d="M2057 2293 c4 -31 -1 -46 -26 -80 -27 -37 -28 -43 -14 -54 13 -11 19
-9 39 14 18 21 24 40 24 77 0 52 -7 80 -20 80 -5 0 -6 -17 -3 -37z"/>
<path d="M2410 2220 c0 -15 -9 -22 -30 -27 -44 -8 -45 -20 -4 -33 32 -11 41
-9 79 10 72 37 72 70 -1 70 -38 0 -44 -3 -44 -20z"/>
<path d="M1545 2200 c-7 -12 31 -70 46 -70 6 0 7 5 3 11 -3 6 -2 14 5 18 7 5
6 14 -5 29 -16 23 -39 29 -49 12z"/>
<path d="M1925 2068 c-22 -11 -47 -26 -55 -33 -8 -6 -42 -16 -75 -22 -83 -15
-121 -31 -108 -44 8 -8 32 -6 81 5 39 9 87 16 108 16 30 0 34 3 25 14 -9 10
-3 19 29 40 22 14 40 31 40 36 0 12 3 13 -45 -12z"/>
<path d="M3283 2080 c-12 -5 -29 -22 -37 -39 -11 -20 -25 -31 -43 -33 -38 -4
-74 -76 -80 -160 -8 -98 38 -186 123 -239 40 -25 113 -27 186 -5 46 13 66 27
110 75 57 62 68 88 68 170 0 88 -69 191 -152 225 -32 14 -37 14 -48 1 -16 -19
-34 -19 -50 0 -14 17 -43 18 -77 5z"/>
<path d="M1472 1977 c-96 -36 -139 -118 -130 -251 7 -89 36 -146 97 -186 52
-35 118 -40 179 -14 44 18 92 61 92 83 0 8 8 23 17 33 24 27 29 124 9 185 -9
27 -30 65 -46 84 -27 31 -31 32 -40 17 -17 -29 -45 -21 -71 20 -27 41 -53 49
-107 29z"/>
<path d="M4979 1798 c-19 -45 -16 -298 4 -398 l15 -75 1 253 c1 138 -1 252 -3
252 -2 0 -10 -15 -17 -32z"/>
<path d="M2385 1759 c-16 -4 -42 -10 -57 -14 -15 -3 -33 -17 -42 -33 -50 -91
-50 -90 -36 -107 18 -22 22 -20 53 30 16 25 34 48 40 52 6 3 59 8 118 11 93 4
111 2 133 -14 16 -12 25 -29 26 -46 0 -17 8 -31 20 -38 18 -10 20 -8 20 18 0
90 -22 111 -148 137 -81 17 -84 17 -127 4z"/>
<path d="M2990 1590 c-12 -12 -19 -24 -16 -28 4 -3 16 4 28 16 12 12 19 24 16
28 -4 3 -16 -4 -28 -16z"/>
<path d="M3056 1574 c-9 -9 -14 -19 -11 -22 3 -3 13 2 22 11 9 9 14 19 11 22
-3 3 -13 -2 -22 -11z"/>
<path d="M3593 1513 c-50 -60 -71 -97 -51 -91 15 5 102 127 95 134 -2 3 -22
-17 -44 -43z"/>
<path d="M3720 1370 c0 -11 4 -20 9 -20 5 0 7 9 4 20 -3 11 -7 20 -9 20 -2 0
-4 -9 -4 -20z"/>
<path d="M1520 1343 c1 -17 70 -76 114 -98 12 -5 34 -22 50 -37 29 -28 56 -37
56 -19 0 5 -17 20 -37 32 -21 13 -71 49 -110 82 -55 44 -73 54 -73 40z"/>
<path d="M3731 1330 c0 -8 11 -67 24 -130 14 -63 41 -196 60 -295 19 -99 49
-234 66 -300 18 -66 35 -151 39 -190 4 -38 12 -89 19 -113 7 -23 14 -73 16
-110 3 -37 8 -87 12 -112 l8 -45 160 -3 160 -2 -3 107 c-2 80 -8 120 -23 156
-16 37 -17 51 -8 68 10 19 17 21 68 15 43 -5 60 -12 74 -30 11 -15 32 -27 57
-31 22 -4 54 -17 72 -29 33 -22 133 -66 150 -66 5 0 36 -13 69 -29 l59 -30 0
152 c-1 94 -6 177 -15 217 -8 36 -15 94 -15 130 0 36 -9 101 -20 145 -39 158
-18 220 58 165 15 -10 50 -25 77 -32 28 -6 57 -18 66 -25 32 -27 39 -15 39 67
l0 81 -87 41 c-116 53 -208 85 -270 94 -81 10 -83 3 -83 -253 0 -131 -4 -213
-10 -213 -5 0 -17 26 -26 58 -9 31 -26 65 -38 74 -15 12 -26 40 -37 95 -10 45
-17 65 -18 48 -1 -35 23 -169 38 -208 6 -16 11 -42 11 -59 0 -17 7 -55 16 -84
24 -73 16 -88 -41 -79 -25 3 -71 15 -102 26 -31 10 -79 19 -107 19 -29 0 -78
7 -109 15 -97 25 -100 24 -94 -37 5 -56 47 -289 71 -398 18 -86 11 -100 -55
-100 -45 0 -51 3 -60 28 -6 15 -15 56 -20 92 -6 36 -15 88 -20 115 -6 28 -14
77 -19 110 -4 33 -24 125 -43 205 -20 80 -41 174 -47 210 -6 35 -18 82 -25
105 -7 22 -15 58 -18 80 -20 138 -29 184 -41 215 -29 73 -35 85 -35 70z"/>
<path d="M4385 1275 c6 -78 20 -163 28 -172 11 -10 7 24 -13 132 -16 82 -18
89 -15 40z"/>
<path d="M2580 1090 c-150 -16 -246 -19 -320 -10 -41 5 -79 5 -84 0 -31 -31
59 -138 160 -190 96 -49 172 -53 245 -14 65 36 167 128 175 159 3 13 3 33 -1
44 -7 23 -34 25 -175 11z"/>
<path d="M4421 1074 c0 -11 3 -14 6 -6 3 7 2 16 -1 19 -3 4 -6 -2 -5 -13z"/>
<path d="M1920 876 c0 -11 50 -106 55 -106 3 0 -7 24 -21 53 -28 55 -34 65
-34 53z"/>
<path d="M2000 701 c0 -6 4 -13 10 -16 6 -3 7 1 4 9 -7 18 -14 21 -14 7z"/>
<path d="M3683 678 c-5 -7 -24 -47 -43 -88 -69 -155 -219 -410 -303 -512 l-39
-48 26 0 c14 0 26 6 26 13 1 27 75 110 130 145 89 57 210 170 231 216 22 48
23 91 7 204 -11 81 -17 93 -35 70z"/>
<path d="M2977 533 c-4 -3 -7 -11 -7 -17 0 -6 5 -5 12 2 6 6 9 14 7 17 -3 3
-9 2 -12 -2z"/>
<path d="M1450 359 c0 -28 28 -144 49 -199 17 -47 23 -51 142 -105 35 -16 74
-25 105 -25 l49 0 -40 32 c-64 50 -152 147 -217 236 -60 81 -88 101 -88 61z"/>
<path d="M2145 295 c4 -22 11 -47 16 -55 7 -10 8 -2 4 25 -4 22 -11 47 -16 55
-7 10 -8 2 -4 -25z"/>
<path d="M2937 313 c-3 -5 -8 -52 -12 -105 -4 -65 -13 -108 -26 -132 -10 -20
-19 -38 -19 -41 0 -3 17 -5 38 -5 l37 0 -24 19 c-22 17 -22 19 -8 47 9 17 16
68 19 127 4 96 3 104 -5 90z"/>
<path d="M2190 137 c0 -7 5 -18 10 -23 7 -7 6 -22 -5 -47 l-15 -37 25 0 c15 0
24 4 20 9 -3 5 0 21 6 34 9 20 8 30 -6 51 -19 28 -35 34 -35 13z"/>
</g>
</svg>
